<svg xmlns="http://www.w3.org/2000/svg" viewBox="0 0 196 55"><path fill="#373E46" d="M79.3 20.2c-2.8 0-4.8.6-6 1.8-1.3 1.2-1.9 2.7-1.9 4.4 0 1.7.5 3 1.5 3.9 1 1 2.2 1.8 3.7 2.4 1.5.6 3.1 1.2 4.8 1.7 1.7.5 3.3 1.2 4.8 2s2.7 1.9 3.7 3.2c1 1.3 1.5 3 1.5 5.2 0 1.5-.3 2.9-.8 4.2-.5 1.3-1.4 2.3-2.4 3.2-1.1.9-2.4 1.6-4 2.1s-3.4.7-5.4.7c-1.7 0-3.4-.2-5-.5s-3.1-.9-4.5-1.6c-.9-.5-1.6-1-2.1-1.6-.5-.5-.6-1.1-.2-1.7.2-.3.4-.5.7-.6.3 0 .6 0 .9.1.3.1.6.3 1 .5.3.2.7.4 1 .6 1.3.7 2.7 1.2 4.1 1.5 1.4.3 2.8.5 4.3.5 2.8 0 5-.6 6.6-1.7 1.7-1.2 2.5-2.9 2.5-5.2 0-1.7-.5-3.1-1.5-4.1-1-1-2.2-1.9-3.7-2.5-1.5-.7-3.1-1.3-4.8-1.8-1.7-.5-3.3-1.2-4.8-2s-2.7-1.9-3.7-3.2c-1-1.3-1.5-3-1.5-5.2 0-1.2.2-2.4.7-3.5.5-1.1 1.2-2.1 2.1-2.9.9-.8 2.1-1.5 3.5-2s3.1-.7 5-.7c1.7 0 3.3.2 4.9.6 1.6.4 2.9 1 4 1.7.6.4 1.2.8 1.6 1.3.4.5.4 1 0 1.5-.2.2-.4.4-.6.4-.2 0-.5 0-.8-.1l-.9-.3c-.3-.2-.6-.3-1-.5-1.1-.6-2.2-1-3.4-1.3-1.3-.3-2.5-.5-3.9-.5zM113 20.7v32.1c0 .5-.1.9-.4 1.2-.3.3-.7.5-1.2.5s-.9-.2-1.2-.5c-.3-.3-.4-.7-.4-1.2V20.7h-12c-.4 0-.8-.1-1-.4-.3-.3-.4-.6-.4-1s.1-.7.4-1c.3-.3.6-.4 1-.4h27.1c.4 0 .8.1 1 .4.3.3.4.6.4 1s-.1.8-.4 1c-.3.3-.6.4-1 .4H113zM135 54.5c-.6 0-1-.2-1.3-.5-.3-.4-.5-.8-.5-1.3V19.6c0-.5.1-.9.4-1.2.3-.3.7-.5 1.3-.5h19.4c.4 0 .8.1 1 .4.3.3.4.6.4 1s-.1.8-.4 1c-.3.3-.6.4-1 .4h-17.9v13.2H151c.4 0 .8.1 1 .4.3.3.4.6.4 1s-.1.8-.4 1c-.3.3-.6.4-1 .4h-14.7v14.8h18.5c.4 0 .8.1 1 .4.3.3.4.6.4 1s-.1.8-.4 1c-.3.3-.6.4-1 .4H135zM192.7 19.1c.2-.3.5-.6.7-.9.3-.2.6-.4 1.1-.4.5 0 .9.2 1.1.5.2.3.4.7.4 1.2v33.2c0 .5-.1.9-.4 1.2-.3.3-.7.5-1.2.5s-.9-.2-1.2-.5c-.3-.3-.4-.7-.4-1.2V24.1l-11.6 18.4c-.4.7-1 1.1-1.6 1.1-.7 0-1.2-.4-1.7-1.1l-11.6-18.3v28.6c0 .5-.1.9-.3 1.2-.2.3-.6.5-1.1.5-.5 0-.9-.2-1.1-.5s-.3-.7-.3-1.2V19.5c0-.5.1-.9.4-1.2.3-.3.6-.5 1.1-.5.5 0 .8.1 1.1.3.3.2.5.6.8 1L180 39.5l12.7-20.4z"/><path fill="#7CC366" d="M31.7 55C14.2 55 0 41.6 0 25.1V1.5C0 .7.7 0 1.5 0h23.3c17.5 0 31.7 13.4 31.7 29.9v23.6c0 .8-.7 1.5-1.5 1.5H31.7zM3 25.1C3 39.9 15.9 52 31.7 52h21.7l.1-22.1C53.6 15.1 40.7 3 24.8 3H3v22.1z"/></svg>