<svg xmlns="http://www.w3.org/2000/svg" viewBox="0 0 165 55"><path fill-rule="evenodd" clip-rule="evenodd" fill="#E1E319" d="M0 0h165v55H0V0z"/><path fill="#FFF" d="M17.1 29.9V7.7h7.2c2.7 0 4.5.1 5.3.3 1.3.3 2.3 1.1 3.2 2.2.9 1.1 1.3 2.6 1.3 4.3 0 1.4-.2 2.5-.7 3.4-.5.9-1.1 1.7-1.9 2.2-.8.5-1.5.9-2.3 1.1-1.1.2-2.6.3-4.6.3h-2.9v8.4h-4.6zm4.5-18.5v6.3H24c1.8 0 2.9-.1 3.5-.4.6-.2 1.1-.6 1.4-1.1.3-.5.5-1.1.5-1.7 0-.8-.2-1.5-.7-2-.5-.5-1.1-.9-1.8-1-.5-.1-1.6-.1-3.2-.1h-2.1zm16.2 18.5V7.7h9.5c2.4 0 4.1.2 5.2.6 1.1.4 1.9 1.1 2.6 2.1.6 1 1 2.2 1 3.5 0 1.7-.5 3-1.5 4.1-1 1.1-2.4 1.8-4.4 2.1 1 .6 1.8 1.2 2.4 1.9.6.7 1.5 1.9 2.5 3.6l2.7 4.3h-5.4L49.2 25c-1.2-1.7-1.9-2.8-2.4-3.3-.4-.4-.9-.8-1.4-.9-.5-.2-1.2-.2-2.3-.2h-.9v9.3h-4.4zm4.5-12.8h3.3c2.2 0 3.5-.1 4-.3.5-.2 1-.5 1.3-.9.3-.4.5-1 .5-1.7 0-.8-.2-1.4-.6-1.8-.4-.5-1-.8-1.7-.9-.4-.1-1.5-.1-3.3-.1h-3.5v5.7zm38 12.8h-4.8l-1.9-5.1h-8.9l-1.8 5.1H58l8.6-22.2h4.8l8.9 22.2zm-8.2-8.8L69 12.9l-3 8.2h6.1zm14 8.8l-8-22.2H83l5.6 16.5L94 7.7h4.8l-7.9 22.2h-4.8zm15-22.2h8.2c1.8 0 3.3.1 4.2.4 1.3.4 2.4 1.1 3.3 2 .9 1 1.6 2.2 2.1 3.6s.7 3.2.7 5.3c0 1.8-.2 3.4-.7 4.7-.6 1.6-1.3 2.9-2.4 3.9-.8.8-1.8 1.4-3.1 1.8-1 .3-2.3.5-4 .5H101V7.7h.1zm4.5 3.7v14.7h3.3c1.2 0 2.1-.1 2.7-.2.7-.2 1.3-.5 1.8-.9s.9-1.1 1.2-2.1c.3-1 .5-2.4.5-4.1s-.1-3-.5-4c-.3-.9-.7-1.6-1.3-2.2-.5-.5-1.2-.9-2.1-1-.6-.1-1.8-.2-3.7-.2h-1.9zm37.9 18.5h-4.8l-1.9-5.1h-8.9l-1.8 5.1h-4.8l8.6-22.2h4.8l8.8 22.2zm-8.2-8.8l-3.1-8.2-3 8.2h6.1z"/><path fill="#8E499B" d="M145.9 29.9v-4.3h4.2v4.3h-4.2z"/><path fill="#FFF" d="M17.2 38.3h1.6v1c.2-.3.5-.6.8-.8.4-.2.8-.3 1.2-.3.8 0 1.4.3 1.9.9.5.6.8 1.4.8 2.5s-.3 1.9-.8 2.5c-.5.6-1.2.9-1.9.9-.4 0-.7-.1-1-.2-.3-.1-.6-.4-.9-.7v3.3h-1.7v-9.1zm1.7 3.2c0 .7.1 1.3.4 1.6.3.3.6.5 1.1.5.4 0 .7-.2 1-.5.3-.3.4-.8.4-1.6 0-.7-.1-1.2-.4-1.5-.3-.3-.6-.5-1-.5s-.8.2-1 .5c-.4.4-.5.8-.5 1.5zm7.6 3.3h-1.7v-6.5h1.6v.9c.3-.4.5-.7.7-.9.2-.1.5-.2.7-.2.4 0 .8.1 1.1.3l-.4 1.6c-.3-.2-.6-.3-.8-.3-.2 0-.4.1-.6.2-.2.1-.3.4-.4.7-.1.3-.1 1.1-.1 2.2v2h-.1zm2.9-3.3c0-.6.1-1.1.4-1.7.3-.5.7-.9 1.2-1.2.5-.3 1.1-.4 1.7-.4 1 0 1.8.3 2.4 1 .6.6.9 1.4.9 2.4s-.3 1.8-1 2.5c-.6.6-1.4 1-2.4 1-.6 0-1.2-.1-1.7-.4-.5-.3-1-.7-1.2-1.2-.2-.6-.3-1.2-.3-2zm1.7.1c0 .6.2 1.1.5 1.5.3.3.7.5 1.1.5.4 0 .8-.2 1.1-.5.3-.3.5-.8.5-1.5 0-.6-.2-1.1-.5-1.5-.3-.3-.7-.5-1.1-.5-.4 0-.8.2-1.1.5-.3.4-.5.9-.5 1.5zm12.3 3.2h-1.6v-1c-.3.4-.6.7-.9.8-.4.2-.7.3-1.1.3-.8 0-1.4-.3-1.9-.9-.5-.6-.8-1.4-.8-2.5s.3-1.9.8-2.5c.5-.6 1.2-.9 2-.9.7 0 1.4.3 1.9.9v-3.2h1.7v9h-.1zm-4.6-3.3c0 .7.1 1.2.3 1.5.3.5.7.7 1.2.7.4 0 .7-.2 1-.5.3-.3.4-.8.4-1.5 0-.8-.1-1.3-.4-1.6-.3-.3-.6-.5-1-.5s-.7.2-1 .5c-.3.2-.5.7-.5 1.4zm10.6 3.3v-1c-.2.3-.6.6-.9.8-.4.2-.8.3-1.2.3-.4 0-.8-.1-1.2-.3-.3-.2-.6-.5-.8-.8-.2-.3-.2-.8-.2-1.4v-4.1h1.7v3c0 .9 0 1.5.1 1.7.1.2.2.4.3.5.2.1.4.2.6.2.3 0 .6-.1.8-.2.2-.2.4-.4.5-.6.1-.2.1-.8.1-1.8v-2.8H51v6.5h-1.6zm9-4.5l-1.7.3c-.1-.3-.2-.6-.4-.8-.2-.2-.5-.3-.8-.3-.4 0-.8.1-1 .4-.3.3-.4.8-.4 1.5 0 .8.1 1.3.4 1.6.3.3.6.5 1 .5.3 0 .6-.1.8-.3.2-.2.4-.5.4-1l1.7.3c-.2.8-.5 1.4-1 1.8-.5.4-1.2.6-2 .6-.9 0-1.7-.3-2.3-.9-.6-.6-.8-1.4-.8-2.5s.3-1.9.9-2.5c.6-.6 1.3-.9 2.3-.9.8 0 1.4.2 1.9.5.5.4.8 1 1 1.7zm4.3-2v1.4h-1.2v3.5c0 .1.1.2.2.2.1.1.2.1.3.1.2 0 .4-.1.7-.2l.1 1.3c-.3.3-.8.4-1.3.4-.3 0-.6-.1-.8-.2-.2-.1-.4-.2-.5-.4-.1-.2-.2-.4-.2-.7 0-.2-.1-.6-.1-1.2v-2.9H59v-1.4h.8V37l1.7-1v2.3h1.2zm1.2-.8v-1.6h1.7v1.6h-1.7zm0 7.3v-6.5h1.7v6.5h-1.7zm3.1-3.3c0-.6.1-1.1.4-1.7.3-.5.7-.9 1.2-1.2.5-.3 1.1-.4 1.7-.4 1 0 1.8.3 2.4 1 .6.6.9 1.4.9 2.4s-.3 1.8-1 2.5c-.6.6-1.4 1-2.4 1-.6 0-1.2-.1-1.7-.4-.5-.3-1-.7-1.2-1.2-.1-.6-.3-1.2-.3-2zm1.8.1c0 .6.2 1.1.5 1.5.3.3.7.5 1.1.5.4 0 .8-.2 1.1-.5.3-.3.5-.8.5-1.5 0-.6-.2-1.1-.5-1.5-.3-.3-.7-.5-1.1-.5-.4 0-.8.2-1.1.5-.4.4-.5.9-.5 1.5zM81 44.8h-1.7v-3.3c0-.7 0-1.2-.1-1.4-.1-.2-.2-.4-.4-.5-.2-.1-.4-.2-.6-.2-.3 0-.6.1-.8.2-.2.2-.4.4-.5.6-.1.3-.1.8-.1 1.5v2.9h-1.7v-6.5h1.6v1c.6-.7 1.3-1.1 2.2-1.1.4 0 .7.1 1 .2.3.1.6.3.7.5.2.2.3.5.3.7.1.3.1.7.1 1.2v4.2z"/></svg>